<svg width="87" height="34" fill="none" xmlns="http://www.w3.org/2000/svg">
<mask id="a" fill="#fff">
<path fill-rule="evenodd" clip-rule="evenodd" d="M17 0C7.611 0 0 7.611 0 17s7.611 17 17 17h53c9.389 0 17-7.611 17-17S79.389 0 70 0H17zm22.717 22h2.009l-4.502-5.976 4.528-4.933h-2.04L35.467 15.7h-.565V11.09h-1.646v10.91h1.646v-4.89h1.13L39.716 22zm2.904 0h.51c1.785 0 2.44-1.32 2.568-4.027l.128-2.78h2.674V22h1.56v-8.182h-5.71l-.143 3.623c-.101 2.524-.389 3.18-1.3 3.18h-.293L42.62 22zm11.126-2.232v-5.95h-1.561V22h1.731l3.59-5.955V22h1.561v-8.182h-1.715l-3.606 5.95zM61.209 22h1.55v-6.807h3.564V22h1.56v-8.182H61.21V22zm-37.58-5.687a.822.822 0 010 1.374l-6.348 4.175A.826.826 0 0116 21.175v-8.35a.826.826 0 011.281-.687l6.348 4.175z"/>
</mask>
<path fill-rule="evenodd" clip-rule="evenodd" d="M17 0C7.611 0 0 7.611 0 17s7.611 17 17 17h53c9.389 0 17-7.611 17-17S79.389 0 70 0H17zm22.717 22h2.009l-4.502-5.976 4.528-4.933h-2.04L35.467 15.7h-.565V11.09h-1.646v10.91h1.646v-4.89h1.13L39.716 22zm2.904 0h.51c1.785 0 2.44-1.32 2.568-4.027l.128-2.78h2.674V22h1.56v-8.182h-5.71l-.143 3.623c-.101 2.524-.389 3.18-1.3 3.18h-.293L42.62 22zm11.126-2.232v-5.95h-1.561V22h1.731l3.59-5.955V22h1.561v-8.182h-1.715l-3.606 5.95zM61.209 22h1.55v-6.807h3.564V22h1.56v-8.182H61.21V22zm-37.58-5.687a.822.822 0 010 1.374l-6.348 4.175A.826.826 0 0116 21.175v-8.35a.826.826 0 011.281-.687l6.348 4.175z" fill="#fff"/>
<path d="M41.726 22v2h4.01l-2.413-3.203L41.726 22zm-2.009 0l-1.597 1.204.6.796h.997v-2zm-2.492-5.976L35.75 14.67l-1.125 1.226 1 1.33 1.599-1.203zm4.527-4.933l1.474 1.353 3.077-3.353h-4.55v2zm-2.04 0v-2h-.877l-.594.645 1.471 1.355zM35.467 15.7v2h.877l.594-.645-1.471-1.355zm-.565 0h-2v2h2v-2zm0-4.608h2v-2h-2v2zm-1.646 0v-2h-2v2h2zm0 10.91h-2v2h2v-2zm1.646 0v2h2v-2h-2zm0-4.89v-2h-2v2h2zm1.13 0l1.596-1.205-.6-.796h-.997v2zM42.62 22l-2 .007.007 1.992h1.992v-2zm3.078-4.028l1.998.095v-.003l-1.998-.092zm.128-2.78v-2h-1.91l-.088 1.908 1.998.092zm2.674 0h2v-2h-2v2zm0 6.807h-2v2h2v-2zm1.56 0v2h2v-2h-2zm0-8.182h2v-2h-2v2zm-5.71 0v-2H42.43l-.076 1.921 1.999.08zm-.143 3.623l1.998.08v-.001l-1.998-.08zm-1.593 3.18v-2h-2.008l.008 2.007 2-.007zm11.132-6.803h2v-2h-2v2zm0 5.95h-2v7.159l3.71-6.122-1.71-1.037zm-1.561-5.95v-2h-2v2h2zm0 8.182h-2v2h2v-2zm1.731 0v2h1.13l.583-.967L53.917 22zm3.59-5.955h2V8.854l-3.712 6.158 1.712 1.033zm0 5.955h-2v2h2v-2zm1.561 0v2h2v-2h-2zm0-8.182h2v-2h-2v2zm-1.715 0v-2h-1.127l-.584.964 1.71 1.036zM62.759 22v2h2v-2h-2zm-1.55 0h-2v2h2v-2zm1.55-6.807v-2h-2v2h2zm3.564 0h2v-2h-2v2zm0 6.807h-2v2h2v-2zm1.56 0v2h2v-2h-2zm0-8.182h2v-2h-2v2zm-6.674 0v-2h-2v2h2zm-37.58 3.87l1.099 1.67-1.1-1.67zm0-1.375l-1.1 1.67 1.1-1.67zm-6.348 5.55l-1.099-1.671 1.099 1.67zm0-9.725l1.1-1.671-1.1 1.67zM2 17C2 8.716 8.716 2 17 2v-4C6.507-2-2 6.507-2 17h4zm15 15C8.716 32 2 25.284 2 17h-4c0 10.493 8.507 19 19 19v-4zm53 0H17v4h53v-4zm15-15c0 8.284-6.716 15-15 15v4c10.493 0 19-8.507 19-19h-4zM70 2c8.284 0 15 6.716 15 15h4C89 6.507 80.493-2 70-2v4zM17 2h53v-4H17v4zm24.726 18h-2.009v4h2.009v-4zm-6.1-2.773l4.502 5.976 3.195-2.406-4.5-5.977-3.196 2.407zm4.653-7.488L35.75 14.67l2.947 2.705 4.528-4.932-2.947-2.705zm-.567 3.352h2.04v-4h-2.04v4zm-2.774 3.963l4.245-4.608-2.942-2.71-4.245 4.607 2.942 2.71zm-2.036.645h.565v-4h-.565v4zm-2-6.608V15.7h4V11.09h-4zm.354 2h1.646v-4h-1.646v4zm2 8.91V11.09h-4v10.91h4zm-.354-2h-1.646v4h1.646v-4zm-2-2.89V22h4v-4.89h-4zm3.13-2h-1.13v4h1.13v-4zm5.283 5.685l-3.687-4.89-3.194 2.408 3.686 4.89 3.195-2.408zM43.132 20h-.511v4h.51v-4zm.57-2.121c-.062 1.295-.247 1.872-.378 2.09-.039.064-.038.04.01.014.036-.019-.003.017-.202.017v4c.692 0 1.405-.129 2.07-.48a3.964 3.964 0 001.548-1.486c.674-1.12.88-2.555.947-3.966l-3.995-.19zm.127-2.778l-.128 2.78 3.996.184.128-2.78-3.996-.184zm4.672-1.908h-2.674v4h2.674v-4zm2 8.807v-6.807h-4V22h4zm-.44-2h-1.56v4h1.56v-4zm-2-6.182V22h4v-8.182h-4zm-3.71 2h5.71v-4h-5.71v4zm1.855 1.702l.144-3.622-3.997-.159-.144 3.622 3.997.159zm-3.298 5.1c.46 0 1.069-.081 1.656-.46.596-.383.941-.924 1.146-1.418.354-.857.447-2.004.496-3.221l-3.997-.16c-.024.605-.058 1.05-.101 1.378a3.847 3.847 0 01-.063.362c-.02.084-.033.116-.031.111.006-.014.102-.233.384-.415.275-.176.506-.176.51-.176v4zm-.293 0h.293v-4h-.293v4zm2.005-.628l-.005-1.38-4 .016.005 1.38 4-.015zm7.127-8.174v5.95h4v-5.95h-4zm.439 2h1.56v-4h-1.56v4zm2 6.182v-8.182h-4V22h4zm-.269-2h-1.731v4h1.731v-4zm1.877-4.988l-3.59 5.956 3.426 2.065 3.59-5.955-3.425-2.066zM59.508 22v-5.955h-4V22h4zm-.439-2h-1.56v4h1.56v-4zm-2-6.182V22h4v-8.182h-4zm.285 2h1.715v-4h-1.715v4zm-1.896 4.987l3.606-5.95-3.42-2.073-3.607 5.95 3.421 2.073zM62.759 20h-1.55v4h1.55v-4zm-2-4.807V22h4v-6.807h-4zm5.564-2h-3.564v4h3.564v-4zm2 8.807v-6.807h-4V22h4zm-.44-2h-1.56v4h1.56v-4zm-2-6.182V22h4v-8.182h-4zm-4.674 2h6.675v-4h-6.675v4zm2 6.182v-8.182h-4V22h4zm-38.481-2.642c1.696-1.115 1.696-3.6 0-4.716l-2.198 3.342a1.178 1.178 0 010-1.968l2.198 3.342zm-6.348 4.175l6.348-4.175-2.198-3.342-6.348 4.176 2.198 3.341zM14 21.175c0 2.26 2.51 3.588 4.38 2.358l-2.198-3.341a1.174 1.174 0 011.818.983h-4zm0-8.35v8.35h4v-8.35h-4zm4.38-2.358c-1.87-1.23-4.38.099-4.38 2.358h4c0 .947-1.047 1.49-1.818.984l2.198-3.342zm6.348 4.175l-6.348-4.175-2.198 3.341 6.348 4.176 2.198-3.342z" fill="#fff" mask="url(#a)"/>
</svg>