<svg width="861" height="273" fill="none" xmlns="http://www.w3.org/2000/svg"><path d="M400.934 118.474c-9.888-2.18-17.33-4.361-22.291-6.809.101-.235.235-.436.336-.705 2.514-6.105 3.787-12.847 3.787-20.26 0-5.3-.905-10.197-2.681-14.692-1.777-4.494-4.324-8.419-7.643-11.74-3.318-3.32-7.307-5.903-12-7.748-4.693-1.845-9.956-2.784-15.788-2.784h-39.889c-4.492-11.472-9.453-25.66-15.051-43.036-.301-.972-1.776-.57-1.542.403 11.263 50.784 8.112 66.113-21.821 55.782-4.391-1.51-7.341 4.528-3.419 7.044 6.503 4.16-8.749 6.742-4.794 7.983 3.419 1.073 6.671 2.717 9.051 5.367 24.134 26.968 9.419 41.761-52.392 74.432-.872.469-.302 1.778.637 1.476 37.308-12.244 53.598-7.413 54.47 9.09l-4.324 20.528h26.011l.135-.57c.134-.034.234-.101.268-.235 11.564-33.241 14.48-60.914 17.866-16.402.067.939 1.408 1.039 1.609.134 5.631-27.237-.637-57.124 57.118 13.283.637.771 1.844-.101 1.308-.939-31.476-48.805-30.202-55.917 19.676-33.141 2.179 1.006 3.821-2.113 1.81-3.388-18.134-11.304-26.481-18.482-25.643-22.742.872-.704 1.777-1.442 2.615-2.214.335-.335.637-.671.972-1.006 5.095-1.912 15.52-2.348 31.073-1.778 3.184.168 3.788-4.629.536-5.333zm-67.007-39.715c1.475-1.208 2.514-2.985 3.487-5.468 3.921 5.803 7.441 4.998 17.933-.1-2.447 5.4-3.252 9.392-1.006 13.45.067.168.201.302.268.47 1.006 1.644 2.548 3.287 4.626 5.065-19.643 8.99-22.023 7.749-17.866-2.784-8.179 7.614-15.721 6.038-25.174-10.633h17.732zM593.912 51.22l-50.917 88.185c-8.615-32-3.117-45.451 35.8-95.564-34.292 35.32-33.051 31.396 2.815-28.042-37.945 54.306-39.185 52.897-8.816-10.466-37.14 58.868-46.358 49.309-46.827-5.333-9.118 62.893-10.09 80.168-23.498 52.528 3.62 48.973-2.983 122.935-27.487 163.321 4.559-6.809 8.548-12.511 12.001-17.241 2.681-3.69 6.972-5.837 11.564-5.837h12.034c.469 4.193.804 9.359 1.173 15.33a2452.275 2452.275 0 003.486-15.33h27.286l33.621-60.142-13.409 60.142h26.683l30.168-141.517h-25.677v-.034zm-75.186 125.82c8.38-37.367 10.593-43.874 23.263-35.858l-20.715 35.858h-2.548zM697.589 214.273c-.033.168-.1.336-.134.504 0 1.844.067 1.308.134-.504z" fill="#fff"/><path d="M827.212 142.927l-1.877-77.115c9.352-7.179 21.051-15.631 35.665-25.694-13.877 8.15-25.71 14.792-35.833 20.025l-.167-6.44h-43.107c4.123-11.841 12.67-28.68 24.704-50.45-67.174 96.169-75.353 180.328-98.281 178.684-1.81-1.576-1.911-6.842-.771-14.926l8.816-41.426c8.212-33.476 20.078-77.45 28.794-120.05-3.218 9.66-6.168 18.415-8.917 26.297-4.592 13.116-16.928 21.904-30.805 21.904l-6.503 30.558c-7.978-1.342-17.631-8.285-30.436-20.897 20.078 24.955 15.05 39.01-14.615 47.194h-.268l12.101-56.855h-26.213l-29.397 139.136h26.011l12.101-57.224h30.436c10.928 14.155-2.547 58.298-41.866 82.952 41.531-16.671 51.319-43.707 47.297-8.05 13.14-35.422 13.709-4.026 13.508 3.756 12.269-45.249 18.772-21.266 45.487 57.728-5.229-30.826-8.179-54.642-7.307-71.782.201-4.126 3.553-7.38 7.642-7.38l10.727-25.123c7.609-1.979 17.866-.94 31.241 3.052-4.458-2.952-8.213-5.501-11.229-7.748h27.855l.402 29.819h26.012l-1.14-47.128c8.916-.301 18.771-.637 29.8-1.073-11.297-.537-21.185-1.107-29.867-1.744zm-18.302-26.365c-.235 7.547 2.95 15.765 9.151 18.952-4.324 1.878-10.056 3.522-16.425 4.998-34.827-4.596-28.157-11.606 7.274-23.95zm12.235-42.901c-13.006 19.388-12.738 23.346-1.24 21.668-13.14 6.508-13.71 7.648-2.447 6.81-5.162 1.811-7.878 7.077-8.447 12.981-45.99 9.593-5.464-11.472-5.464-11.472s-31.275 6.709 7.307-26.163c-.637 5.769 1.71 3.656 10.291-3.824zm-6.872-15.028c-.503 2.851-1.005 5.367-1.441 7.615-19.71 9.157-30.068 10.566-32.883 4.46 7.039 2.55 14.916-3.689 34.324-12.075zM139.545 78.759h19.642V55.547c11.096-6.406 26.347-13.35 44.616-21.333-64.527 25.392-88.426 20.461-73.543 2.18-27.789 20.227-39.923 24.554-93.22-2.851C74.415 59.773 65.465 67.019 0 80.201c72.806-7.01 74.18-4.36 7.71 14.659 52.693-10.567 73.04-13.954 86.314-6.474l-22.19 104.52h26.213l23.196-109.183c7.91 1.208 20.112 5.233 38.548 11.774-12.302-5.904-18.738-11.338-20.246-16.738z" fill="#fff"/><path d="M285.961 53.736h-26.749a1368.79 1368.79 0 019.419-19.489c-34.559 51.69-48.403 64.94-60.068 42.667 3.653 20.998 5.43 32.469 4.29 43.203h-1.575l-15.084-66.382h-27.788l21.855 90.231h11.061c-5.698 6.575-15.05 18.818-28.525 37.535 33.956-39.95 35.397-39.078 9.553 10.968 27.218-47.966-1.844 8.285-24.403 61.82 24.034-52.662 64.225-87.648 46.593-34.247 5.9-16.906 10.023-28.78 13.241-37.703l68.18-126.188v-2.416zM498.715 137.056c-25.241-13.417-25.107-19.254-2.112-31.698-27.42 7.111-29.029 6.004-9.788-8.017-23.699 11.036-26.548 9.124-19.174-12.914-13.274 13.149-23.028 12.11-39.319-7.849h69.421V51.522H390.947v25.056h10.123l-23.129 116.26h52.091c7.944 0 15.151-1.208 21.654-3.589 6.503-2.382 12.034-5.769 16.693-10.13 4.626-4.361 8.212-9.593 10.726-15.698 2.514-6.105 3.788-12.847 3.788-20.26 0-2.65-.234-5.199-.67-7.648 4.156-.033 9.587.537 16.492 1.543zm-36.269 29.619c-3.754-3.657-6.972-6.441-9.922-8.554-.905 1.342-1.944 2.583-3.252 3.723-4.491 3.958-10.123 5.971-16.894 5.971h-24.235l7.609-35.958c.838-.201 1.609-.403 2.38-.604h4.961c-1.81-3.254-4.123-6.809-6.838-10.901 19.743 11.538 28.827 12.176 42.101-.537-7.341 14.96-5.765 18.013 10.794 18.616-16.861 3.22-17.129 4.227-.469 7.984-16.057-.537-13.308 1.375 6.1 16.905-21.017-11.874-23.229-11.807-12.335 3.355z" fill="#fff"/></svg>