<svg data-name="Layer 1" viewBox="0 0 100 100" fill="#fff" xmlns="http://www.w3.org/2000/svg">
  <path d="M50 5a45 45 0 1045 45A45 45 0 0050 5zm0 88a43 43 0 1130.406-12.595A42.861 42.861 0 0150 93z"/>
  <path d="M62.003 25.773a3.005 3.005 0 00-.952.156l-20 6.666A3 3 0 0039 35.441v27.665A6.996 6.996 0 1041 68a7.067 7.067 0 00-.045-.775A.958.958 0 0041 67V40.72l22-7.333v21.719A6.996 6.996 0 1065 60a7.067 7.067 0 00-.045-.775A.958.958 0 0065 59V28.775a3.002 3.002 0 00-2.997-3.002zM34 73a5 5 0 113.535-1.465A4.98 4.98 0 0134 73zm24-8a5 5 0 113.535-1.465A4.98 4.98 0 0158 65zM41 38.613V35.44a1 1 0 01.684-.948l20-6.667a.99.99 0 011.017.236.98.98 0 01.299.713v2.504z"/>
</svg>